<svg xmlns="http://www.w3.org/2000/svg" viewBox="0 0 228.83 526.62">
  <path d="M101.36,139A381.07,381.07,0,0,0,91.28,87.18c-2.89-10.76-5.69-19-11.31-35.4C74.74,36.45,72.6,31.53,69.88,26.47,62.64,13,52.56.94,50.56,2.07c-1.25.72,1.28,6.23,6,21.48C58,28.13,61.42,39.19,64,50.19c3.63,15.48,6.2,26.85,4.36,41.17-1.89,14.75-6.77,19.46-8,20.55-2.3,2.09-3.85,2.48-9.6,7.09-6.46,5.17-9.68,7.82-9.59,10.4.19,5.58,12,9,14.12,9.65,4.1,1.2,15,4.39,21.28-1.06,6.8-6,4.12-18.79,5.26-18.82,1,0,1.9,9.19,3.1,18.21,2.13,15.93,2.92,15,4.17,26.22a247.42,247.42,0,0,1,1.37,28.77c-.1,10.74-.78,11.13-1.09,25.15-.28,13.19.29,14.35,0,23.21-.45,13.49-2,18.39-3.58,31.89-2,17.31-.43,17.95-1.86,37.9-1.86,26-6.45,51.36-8.08,51.21-.84-.07-.91-6.83-1-11.17-.17-16.64,2.76-27.13.73-27.82-1.14-.39-2.16,2.88-5.31,4.86-6.15,3.87-15.12-.54-21.39-3.51a62.31,62.31,0,0,1-16.76-11.78c-4-3.92-4.49-5.54-10-10.65-4.57-4.24-5.53-4.34-8.7-7.72-5.79-6.17-6.69-10.2-8.43-9.9-2.55.44-3.24,9.57-3.07,15.64.29,10.29,3.21,18.14,5.74,24.76a106.34,106.34,0,0,0,9,18.27A114.55,114.55,0,0,0,29.14,358.9c8.38,9.58,9.51,8.68,16.41,16.71,4.24,4.93,10,11.59,14.45,21.43,4.25,9.33,5.08,16.43,6.25,16.26s.12-8.91,2.25-22.37c1.07-6.74,2.78-13.49,3.34-13.4.73.11-1.09,11.68-1.61,28.26-.08,2.4-.38,13,.36,25.74.83,14.37,1.6,27.7,6.37,43.91,5.66,19.22,13.09,29.43,15.53,32.62,8,10.41,14.37,13.63,18.83,15.08a34.21,34.21,0,0,0,11.7,1.47c9.73-.17,16.4-2.61,38.23-11.79,20.81-8.73,24.95-10.8,28.85-16.27,3.76-5.27,5.62-11.36,6.47-14.11,1.8-5.85,2.29-11,3.21-21.15.65-7.19,1-10.78.85-13.44s-.57-8.87-5.87-23.67C192.21,417,191.06,415,187,405c-3.66-8.94-5.71-15.3-8.56-22.08-6.06-14.44-7.16-36.54-10.69-46.93-1.2-3.54-4.09-10.53-1.76-12.38,1.42-1.14,3.65.54,8.67,1.36a34.73,34.73,0,0,0,12.79-.61c4.49-1.19,7.62-4.19,13.71-10.16,8.65-8.47,13.51-13.24,17.59-21.28,1.86-3.66,3.21-7.33,4.76-7.14,1.83.22,2.58,5.58,2.89,7.83a54.42,54.42,0,0,1-1.13,20c-1.84,7.95-3.75,16.22-9.54,25.33-4.68,7.38-6.76,7.19-13.88,18.15a103.14,103.14,0,0,0-7.11,12.65,60.64,60.64,0,0,0-4.43,11c-1.5,5.55-1.25,8.52-2.49,8.81-1.75.41-4.39-5-6.56-9.39-12.7-25.86-12-23.88-12.77-25.92a177.67,177.67,0,0,1-8-28.64c-1-4.81-.75-4.89-3.6-22-2.08-12.51-2.21-12.65-2.77-16.44-1.77-11.89-1.58-17.92-2.31-31.17-.82-15.11-1.33-24.41-3.3-36.48a219.41,219.41,0,0,0-9.11-36.38c-1-2.81-3.52-10-7.57-19a171.35,171.35,0,0,0-10.14-19.92c-2.84-4.72-2.63-3.78-8.18-12.43-6.78-10.57-8.22-13.72-9.3-13.39-2.29.68.38,15.83,1.41,21.73a160.05,160.05,0,0,0,9.3,33.29c3,7.4,4.54,11.1,7.31,14.39,2.51,3,6,6,10.89,12.35a19.69,19.69,0,0,1,3.39,6,19.38,19.38,0,0,1,.86,8c-.67,7.93-4.68,15.33-5.7,17.31-3.09,6-3.86,14.55-5.42,31.65-.82,9-.8,14.67-.85,28.29-.2,44.62-.7,40.28-.31,52,.19,5.78.82,22.11,3.07,43.29,1.29,12.18,2.72,25.41,6.05,42.62,3.15,16.31,6.81,30,9.87,40.21" style="fill: none;stroke: #1d1d1b;stroke-linecap: round;stroke-linejoin: round;stroke-width: 4px"/>
</svg>
